{
	"patcher" : 	{
		"fileversion" : 1,
		"appversion" : 		{
			"major" : 8,
			"minor" : 5,
			"revision" : 8,
			"architecture" : "x64",
			"modernui" : 1
		}
,
		"classnamespace" : "box",
		"rect" : [ 59.0, 106.0, 640.0, 480.0 ],
		"bglocked" : 0,
		"openinpresentation" : 0,
		"default_fontsize" : 12.0,
		"default_fontface" : 0,
		"default_fontname" : "Arial",
		"gridonopen" : 1,
		"gridsize" : [ 15.0, 15.0 ],
		"gridsnaponopen" : 1,
		"objectsnaponopen" : 1,
		"statusbarvisible" : 2,
		"toolbarvisible" : 1,
		"lefttoolbarpinned" : 0,
		"toptoolbarpinned" : 0,
		"righttoolbarpinned" : 0,
		"bottomtoolbarpinned" : 0,
		"toolbars_unpinned_last_save" : 0,
		"tallnewobj" : 0,
		"boxanimatetime" : 200,
		"enablehscroll" : 1,
		"enablevscroll" : 1,
		"devicewidth" : 0.0,
		"description" : "",
		"digest" : "",
		"tags" : "",
		"style" : "",
		"subpatcher_template" : "",
		"assistshowspatchername" : 0,
		"boxes" : [ 			{
				"box" : 				{
					"id" : "obj-67",
					"maxclass" : "message",
					"numinlets" : 2,
					"numoutlets" : 1,
					"outlettype" : [ "" ],
					"patching_rect" : [ 26.5, 313.0, 65.0, 22.0 ],
					"text" : "ignoreclick"
				}

			}
, 			{
				"box" : 				{
					"fontname" : "Ableton Sans Medium",
					"id" : "obj-20",
					"linecount" : 2,
					"maxclass" : "comment",
					"numinlets" : 1,
					"numoutlets" : 0,
					"patching_rect" : [ 675.0, 337.0, 80.0, 35.0 ],
					"presentation" : 1,
					"presentation_linecount" : 2,
					"presentation_rect" : [ 243.0, 130.5, 80.0, 35.0 ],
					"text" : "Designed by: Niek Meijer :)"
				}

			}
, 			{
				"box" : 				{
					"id" : "obj-37",
					"maxclass" : "message",
					"numinlets" : 2,
					"numoutlets" : 1,
					"outlettype" : [ "" ],
					"patching_rect" : [ 62.0, 841.5, 64.0, 22.0 ],
					"text" : "refer Sus4"
				}

			}
, 			{
				"box" : 				{
					"coll_data" : 					{
						"count" : 14,
						"data" : [ 							{
								"key" : 1,
								"value" : [ 48 ]
							}
, 							{
								"key" : 2,
								"value" : [ 48 ]
							}
, 							{
								"key" : 3,
								"value" : [ 53 ]
							}
, 							{
								"key" : 4,
								"value" : [ 53 ]
							}
, 							{
								"key" : 5,
								"value" : [ 55 ]
							}
, 							{
								"key" : 6,
								"value" : [ 55 ]
							}
, 							{
								"key" : 7,
								"value" : [ 55 ]
							}
, 							{
								"key" : 8,
								"value" : [ 60 ]
							}
, 							{
								"key" : 9,
								"value" : [ 60 ]
							}
, 							{
								"key" : 10,
								"value" : [ 65 ]
							}
, 							{
								"key" : 11,
								"value" : [ 65 ]
							}
, 							{
								"key" : 12,
								"value" : [ 67 ]
							}
, 							{
								"key" : 13,
								"value" : [ 67 ]
							}
, 							{
								"key" : 14,
								"value" : [ 67 ]
							}
 ]
					}
,
					"id" : "obj-23",
					"maxclass" : "newobj",
					"numinlets" : 1,
					"numoutlets" : 4,
					"outlettype" : [ "", "", "", "" ],
					"patching_rect" : [ 13.0, 1004.0, 57.0, 22.0 ],
					"saved_object_attributes" : 					{
						"embed" : 1,
						"precision" : 6
					}
,
					"text" : "coll Sus4"
				}

			}
, 			{
				"box" : 				{
					"id" : "obj-63",
					"maxclass" : "newobj",
					"numinlets" : 0,
					"numoutlets" : 1,
					"outlettype" : [ "" ],
					"patching_rect" : [ 528.75, 451.0, 56.0, 22.0 ],
					"text" : "r amount"
				}

			}
, 			{
				"box" : 				{
					"id" : "obj-60",
					"maxclass" : "newobj",
					"numinlets" : 0,
					"numoutlets" : 1,
					"outlettype" : [ "" ],
					"patching_rect" : [ 531.25, 605.0, 56.0, 22.0 ],
					"text" : "r amount"
				}

			}
, 			{
				"box" : 				{
					"id" : "obj-57",
					"maxclass" : "newobj",
					"numinlets" : 0,
					"numoutlets" : 1,
					"outlettype" : [ "" ],
					"patching_rect" : [ 428.25, 391.0, 56.0, 22.0 ],
					"text" : "r amount"
				}

			}
, 			{
				"box" : 				{
					"id" : "obj-54",
					"maxclass" : "newobj",
					"numinlets" : 0,
					"numoutlets" : 1,
					"outlettype" : [ "" ],
					"patching_rect" : [ 416.25, 216.0, 56.0, 22.0 ],
					"text" : "r amount"
				}

			}
, 			{
				"box" : 				{
					"id" : "obj-48",
					"maxclass" : "newobj",
					"numinlets" : 0,
					"numoutlets" : 1,
					"outlettype" : [ "" ],
					"patching_rect" : [ 239.5, 527.0, 56.0, 22.0 ],
					"text" : "r amount"
				}

			}
, 			{
				"box" : 				{
					"id" : "obj-18",
					"maxclass" : "newobj",
					"numinlets" : 1,
					"numoutlets" : 0,
					"patching_rect" : [ 586.75, 236.0, 78.0, 22.0 ],
					"text" : "send amount"
				}

			}
, 			{
				"box" : 				{
					"fontname" : "Ableton Sans Medium",
					"id" : "obj-189",
					"maxclass" : "comment",
					"numinlets" : 1,
					"numoutlets" : 0,
					"patching_rect" : [ 249.75, 1096.0, 110.0, 21.0 ],
					"presentation" : 1,
					"presentation_rect" : [ 206.5, 11.0, 110.0, 21.0 ],
					"text" : "Velocity Sensitivity"
				}

			}
, 			{
				"box" : 				{
					"annotation" : "Changes the total velocity of the MIDI notes",
					"id" : "obj-187",
					"maxclass" : "live.dial",
					"numinlets" : 1,
					"numoutlets" : 2,
					"outlettype" : [ "", "float" ],
					"parameter_enable" : 1,
					"patching_rect" : [ 465.5, 1143.0, 27.0, 54.0 ],
					"presentation" : 1,
					"presentation_rect" : [ 284.0, 28.0, 27.0, 54.0 ],
					"saved_attribute_attributes" : 					{
						"textcolor" : 						{
							"expression" : "themecolor.live_meter_bg"
						}
,
						"valueof" : 						{
							"parameter_info" : "Changes the total velocity of the MIDI notes",
							"parameter_longname" : "Gain",
							"parameter_mmin" : -127.0,
							"parameter_shortname" : "Gain",
							"parameter_type" : 0,
							"parameter_unitstyle" : 0
						}

					}
,
					"textcolor" : [ 0.074509803921569, 0.070588235294118, 0.082352941176471, 1.0 ],
					"triangle" : 1,
					"varname" : "live.dial[3]"
				}

			}
, 			{
				"box" : 				{
					"id" : "obj-186",
					"maxclass" : "newobj",
					"numinlets" : 2,
					"numoutlets" : 1,
					"outlettype" : [ "int" ],
					"patching_rect" : [ 375.0, 1191.0, 29.5, 22.0 ],
					"text" : "+"
				}

			}
, 			{
				"box" : 				{
					"id" : "obj-185",
					"maxclass" : "newobj",
					"numinlets" : 2,
					"numoutlets" : 1,
					"outlettype" : [ "int" ],
					"patching_rect" : [ 422.0, 1135.0, 29.5, 22.0 ],
					"text" : "+"
				}

			}
, 			{
				"box" : 				{
					"id" : "obj-183",
					"maxclass" : "newobj",
					"numinlets" : 6,
					"numoutlets" : 1,
					"outlettype" : [ "" ],
					"patching_rect" : [ 491.0, 1108.0, 113.0, 22.0 ],
					"text" : "scale 0. 127. 63.5 0"
				}

			}
, 			{
				"box" : 				{
					"id" : "obj-180",
					"maxclass" : "newobj",
					"numinlets" : 2,
					"numoutlets" : 1,
					"outlettype" : [ "int" ],
					"patching_rect" : [ 250.0, 1140.0, 29.5, 22.0 ],
					"text" : "+ 1"
				}

			}
, 			{
				"box" : 				{
					"id" : "obj-176",
					"maxclass" : "newobj",
					"numinlets" : 1,
					"numoutlets" : 1,
					"outlettype" : [ "bang" ],
					"patching_rect" : [ 422.0, 1083.0, 22.0, 22.0 ],
					"text" : "t b"
				}

			}
, 			{
				"box" : 				{
					"activebgcolor" : [ 0.074509803921569, 0.070588235294118, 0.082352941176471, 1.0 ],
					"annotation" : "Changes the working of the 'Amount' dial to Pitch or Random.",
					"bgcolor" : [ 0.074509803921569, 0.070588235294118, 0.082352941176471, 1.0 ],
					"id" : "obj-173",
					"maxclass" : "live.tab",
					"num_lines_patching" : 1,
					"num_lines_presentation" : 2,
					"numinlets" : 1,
					"numoutlets" : 3,
					"outlettype" : [ "", "", "float" ],
					"parameter_enable" : 1,
					"parameter_mappable" : 0,
					"patching_rect" : [ 249.75, 1116.0, 84.0, 20.0 ],
					"presentation" : 1,
					"presentation_rect" : [ 206.0, 28.0, 41.0, 34.0 ],
					"saved_attribute_attributes" : 					{
						"activebgcolor" : 						{
							"expression" : "themecolor.live_meter_bg"
						}
,
						"bgcolor" : 						{
							"expression" : "themecolor.live_meter_bg"
						}
,
						"valueof" : 						{
							"parameter_enum" : [ "Pitch", "Random" ],
							"parameter_enum_icons" : [ "1", "2" ],
							"parameter_info" : "Changes the working of the 'Amount' dial to Pitch or Random.",
							"parameter_longname" : "Pitch/Random",
							"parameter_mmax" : 1,
							"parameter_shortname" : "Pitch/Random",
							"parameter_type" : 2,
							"parameter_units" : "1 2",
							"parameter_unitstyle" : 9
						}

					}
,
					"varname" : "live.tab[1]"
				}

			}
, 			{
				"box" : 				{
					"id" : "obj-169",
					"maxclass" : "newobj",
					"numinlets" : 3,
					"numoutlets" : 1,
					"outlettype" : [ "" ],
					"patching_rect" : [ 350.75, 1149.0, 42.0, 22.0 ],
					"text" : "switch"
				}

			}
, 			{
				"box" : 				{
					"id" : "obj-164",
					"maxclass" : "newobj",
					"numinlets" : 2,
					"numoutlets" : 1,
					"outlettype" : [ "int" ],
					"patching_rect" : [ 422.0, 1108.0, 73.0, 22.0 ],
					"text" : "random 127"
				}

			}
, 			{
				"box" : 				{
					"id" : "obj-224",
					"linecount" : 4,
					"maxclass" : "comment",
					"numinlets" : 1,
					"numoutlets" : 0,
					"patching_rect" : [ 276.0, 1035.0, 119.0, 60.0 ],
					"text" : "Patch from any pitch related information (change Input Values accordingly) "
				}

			}
, 			{
				"box" : 				{
					"id" : "obj-222",
					"linecount" : 6,
					"maxclass" : "comment",
					"numinlets" : 1,
					"numoutlets" : 0,
					"patching_rect" : [ 324.25, 930.0, 136.0, 87.0 ],
					"text" : "Vel. Sensitivity changes velocity according to pitch information. At 100% the high notes are loudest, at -100% the lowest"
				}

			}
, 			{
				"box" : 				{
					"id" : "obj-220",
					"maxclass" : "comment",
					"numinlets" : 1,
					"numoutlets" : 0,
					"patching_rect" : [ 483.0, 1050.5, 158.0, 20.0 ],
					"text" : "Patch to 'makenote' Velocity"
				}

			}
, 			{
				"box" : 				{
					"id" : "obj-184",
					"maxclass" : "comment",
					"numinlets" : 1,
					"numoutlets" : 0,
					"patching_rect" : [ 653.5, 1255.0, 162.0, 20.0 ],
					"text" : "Patch to 'makenote' Duration"
				}

			}
, 			{
				"box" : 				{
					"id" : "obj-182",
					"linecount" : 4,
					"maxclass" : "comment",
					"numinlets" : 1,
					"numoutlets" : 0,
					"patching_rect" : [ 532.0, 1165.5, 121.0, 60.0 ],
					"text" : "This receives 'send length' in ms from the given subdivision of the tempo"
				}

			}
, 			{
				"box" : 				{
					"id" : "obj-106",
					"maxclass" : "newobj",
					"numinlets" : 1,
					"numoutlets" : 0,
					"patching_rect" : [ 284.0, 1257.5, 32.0, 22.0 ],
					"text" : "print"
				}

			}
, 			{
				"box" : 				{
					"id" : "obj-101",
					"maxclass" : "newobj",
					"numinlets" : 6,
					"numoutlets" : 1,
					"outlettype" : [ "" ],
					"patching_rect" : [ 450.0, 997.5, 134.0, 22.0 ],
					"text" : "scale -100. 100. 0. 127."
				}

			}
, 			{
				"box" : 				{
					"id" : "obj-97",
					"maxclass" : "newobj",
					"numinlets" : 1,
					"numoutlets" : 1,
					"outlettype" : [ "" ],
					"patching_rect" : [ 450.0, 1024.0, 88.0, 22.0 ],
					"text" : "expr -($f1-127)"
				}

			}
, 			{
				"box" : 				{
					"annotation" : "When the button is turned to 'Pitch' this adjusts the velocity of the MIDI notes relative to the pitch (with negative values enhancing lower notes).\nWhen the button is turned to 'Random' this adjusts the velocity of random chosen MIDI notes.",
					"id" : "obj-79",
					"maxclass" : "live.dial",
					"numinlets" : 1,
					"numoutlets" : 2,
					"outlettype" : [ "", "float" ],
					"parameter_enable" : 1,
					"patching_rect" : [ 450.0, 930.0, 27.0, 54.0 ],
					"presentation" : 1,
					"presentation_rect" : [ 249.0, 28.0, 33.0, 54.0 ],
					"saved_attribute_attributes" : 					{
						"textcolor" : 						{
							"expression" : "themecolor.live_meter_bg"
						}
,
						"valueof" : 						{
							"parameter_info" : "When the button is turned to 'Pitch' this adjusts the velocity of the MIDI notes relative to the pitch (with negative values enhancing lower notes).\nWhen the button is turned to 'Random' this adjusts the velocity of random chosen MIDI notes.",
							"parameter_longname" : "Amount",
							"parameter_mmax" : 100.0,
							"parameter_mmin" : -100.0,
							"parameter_shortname" : "Amount",
							"parameter_type" : 0,
							"parameter_unitstyle" : 5
						}

					}
,
					"textcolor" : [ 0.074509803921569, 0.070588235294118, 0.082352941176471, 1.0 ],
					"triangle" : 1,
					"varname" : "live.dial[1]"
				}

			}
, 			{
				"box" : 				{
					"id" : "obj-92",
					"maxclass" : "newobj",
					"numinlets" : 1,
					"numoutlets" : 1,
					"outlettype" : [ "bang" ],
					"patching_rect" : [ 622.0, 1225.5, 22.0, 22.0 ],
					"text" : "t b"
				}

			}
, 			{
				"box" : 				{
					"id" : "obj-91",
					"maxclass" : "newobj",
					"numinlets" : 6,
					"numoutlets" : 1,
					"outlettype" : [ "" ],
					"patching_rect" : [ 647.0, 1225.5, 103.0, 22.0 ],
					"text" : "scale 0. 200. 0. 2."
				}

			}
, 			{
				"box" : 				{
					"id" : "obj-88",
					"maxclass" : "newobj",
					"numinlets" : 2,
					"numoutlets" : 1,
					"outlettype" : [ "float" ],
					"patching_rect" : [ 622.0, 1255.0, 29.5, 22.0 ],
					"text" : "* 1."
				}

			}
, 			{
				"box" : 				{
					"id" : "obj-85",
					"maxclass" : "newobj",
					"numinlets" : 0,
					"numoutlets" : 1,
					"outlettype" : [ "" ],
					"patching_rect" : [ 541.0, 1225.5, 83.0, 22.0 ],
					"text" : "receive length"
				}

			}
, 			{
				"box" : 				{
					"id" : "obj-36",
					"maxclass" : "newobj",
					"numinlets" : 1,
					"numoutlets" : 0,
					"patching_rect" : [ 210.0, 434.0, 71.0, 22.0 ],
					"text" : "send length"
				}

			}
, 			{
				"box" : 				{
					"annotation" : "Adjusts the MIDI note duration. When set to 100% the notes are legato when next to each other.",
					"appearance" : 1,
					"id" : "obj-21",
					"maxclass" : "live.dial",
					"numinlets" : 1,
					"numoutlets" : 2,
					"outlettype" : [ "", "float" ],
					"parameter_enable" : 1,
					"patching_rect" : [ 647.0, 1165.5, 25.0, 36.0 ],
					"presentation" : 1,
					"presentation_rect" : [ 249.0, 86.5, 67.0, 36.0 ],
					"saved_attribute_attributes" : 					{
						"textcolor" : 						{
							"expression" : "themecolor.live_meter_bg"
						}
,
						"valueof" : 						{
							"parameter_enum" : [ "0", "1" ],
							"parameter_info" : "Adjusts the MIDI note duration. When set to 100% the notes are legato when next to each other.",
							"parameter_initial" : [ 100.0 ],
							"parameter_initial_enable" : 1,
							"parameter_longname" : "Note Duration",
							"parameter_mmax" : 200.0,
							"parameter_shortname" : "Note Duration",
							"parameter_type" : 1,
							"parameter_unitstyle" : 5
						}

					}
,
					"textcolor" : [ 0.074509803921569, 0.070588235294118, 0.082352941176471, 1.0 ],
					"varname" : "live.dial"
				}

			}
, 			{
				"box" : 				{
					"id" : "obj-93",
					"maxclass" : "newobj",
					"numinlets" : 2,
					"numoutlets" : 1,
					"outlettype" : [ "int" ],
					"patching_rect" : [ 157.0, 434.0, 29.5, 22.0 ],
					"text" : "/ 4"
				}

			}
, 			{
				"box" : 				{
					"id" : "obj-86",
					"maxclass" : "newobj",
					"numinlets" : 1,
					"numoutlets" : 1,
					"outlettype" : [ "bang" ],
					"patching_rect" : [ 101.5, 553.0, 22.0, 22.0 ],
					"text" : "t b"
				}

			}
, 			{
				"box" : 				{
					"id" : "obj-113",
					"maxclass" : "newobj",
					"numinlets" : 2,
					"numoutlets" : 1,
					"outlettype" : [ "int" ],
					"patching_rect" : [ 233.75, 836.0, 36.0, 22.0 ],
					"text" : "% 12"
				}

			}
, 			{
				"box" : 				{
					"id" : "obj-112",
					"maxclass" : "newobj",
					"numinlets" : 1,
					"numoutlets" : 1,
					"outlettype" : [ "bang" ],
					"patching_rect" : [ 157.0, 374.0, 22.0, 22.0 ],
					"text" : "t b"
				}

			}
, 			{
				"box" : 				{
					"id" : "obj-109",
					"maxclass" : "newobj",
					"numinlets" : 2,
					"numoutlets" : 1,
					"outlettype" : [ "float" ],
					"patching_rect" : [ 157.0, 409.0, 29.5, 22.0 ],
					"text" : "* 2."
				}

			}
, 			{
				"box" : 				{
					"coll_data" : 					{
						"count" : 5,
						"data" : [ 							{
								"key" : 0,
								"value" : [ 2 ]
							}
, 							{
								"key" : 1,
								"value" : [ 3 ]
							}
, 							{
								"key" : 2,
								"value" : [ 4 ]
							}
, 							{
								"key" : 3,
								"value" : [ 6 ]
							}
, 							{
								"key" : 4,
								"value" : [ 8 ]
							}
 ]
					}
,
					"id" : "obj-105",
					"maxclass" : "newobj",
					"numinlets" : 1,
					"numoutlets" : 4,
					"outlettype" : [ "", "", "", "" ],
					"patching_rect" : [ 180.5, 337.0, 50.5, 22.0 ],
					"saved_object_attributes" : 					{
						"embed" : 1,
						"precision" : 6
					}
,
					"text" : "coll"
				}

			}
, 			{
				"box" : 				{
					"activebgcolor" : [ 0.074509803921569, 0.070588235294118, 0.082352941176471, 1.0 ],
					"annotation" : "Choose the division of the notes",
					"bgcolor" : [ 0.074509803921569, 0.070588235294118, 0.082352941176471, 1.0 ],
					"id" : "obj-102",
					"maxclass" : "live.tab",
					"num_lines_patching" : 1,
					"num_lines_presentation" : 1,
					"numinlets" : 1,
					"numoutlets" : 3,
					"outlettype" : [ "", "", "float" ],
					"parameter_enable" : 1,
					"patching_rect" : [ 180.5, 313.0, 169.0, 15.0 ],
					"presentation" : 1,
					"presentation_rect" : [ 86.5, 105.0, 158.5, 17.5 ],
					"saved_attribute_attributes" : 					{
						"activebgcolor" : 						{
							"expression" : "themecolor.live_meter_bg"
						}
,
						"bgcolor" : 						{
							"expression" : "themecolor.live_meter_bg"
						}
,
						"valueof" : 						{
							"parameter_enum" : [ "1/8", "1/8T", "1/16", "1/16T", "1/32" ],
							"parameter_info" : "Choose the division of the notes",
							"parameter_initial" : [ 2.0 ],
							"parameter_initial_enable" : 1,
							"parameter_longname" : "Note Division",
							"parameter_mmax" : 4,
							"parameter_shortname" : "Note Division",
							"parameter_type" : 2,
							"parameter_unitstyle" : 9
						}

					}
,
					"varname" : "live.tab"
				}

			}
, 			{
				"box" : 				{
					"id" : "obj-100",
					"maxclass" : "newobj",
					"numinlets" : 2,
					"numoutlets" : 1,
					"outlettype" : [ "float" ],
					"patching_rect" : [ 210.0, 409.0, 55.0, 22.0 ],
					"text" : "!/ 60000."
				}

			}
, 			{
				"box" : 				{
					"fontname" : "Ableton Sans Medium",
					"id" : "obj-98",
					"maxclass" : "message",
					"numinlets" : 2,
					"numoutlets" : 1,
					"outlettype" : [ "" ],
					"patching_rect" : [ 264.75, 961.0, 26.0, 23.0 ],
					"presentation" : 1,
					"presentation_rect" : [ 117.5, 79.0, 25.0, 23.0 ],
					"text" : "C"
				}

			}
, 			{
				"box" : 				{
					"id" : "obj-96",
					"maxclass" : "newobj",
					"numinlets" : 2,
					"numoutlets" : 2,
					"outlettype" : [ "", "" ],
					"patching_rect" : [ 233.75, 930.0, 55.0, 22.0 ],
					"text" : "zl.slice 1"
				}

			}
, 			{
				"box" : 				{
					"id" : "obj-87",
					"linecount" : 2,
					"maxclass" : "message",
					"numinlets" : 2,
					"numoutlets" : 1,
					"outlettype" : [ "" ],
					"patching_rect" : [ 233.75, 895.0, 50.0, 35.0 ],
					"text" : "symbol C"
				}

			}
, 			{
				"box" : 				{
					"coll_data" : 					{
						"count" : 12,
						"data" : [ 							{
								"key" : 0,
								"value" : [ "C" ]
							}
, 							{
								"key" : 1,
								"value" : [ "C#" ]
							}
, 							{
								"key" : 2,
								"value" : [ "D" ]
							}
, 							{
								"key" : 3,
								"value" : [ "D#" ]
							}
, 							{
								"key" : 4,
								"value" : [ "E" ]
							}
, 							{
								"key" : 5,
								"value" : [ "F" ]
							}
, 							{
								"key" : 6,
								"value" : [ "F#" ]
							}
, 							{
								"key" : 7,
								"value" : [ "G" ]
							}
, 							{
								"key" : 8,
								"value" : [ "G#" ]
							}
, 							{
								"key" : 9,
								"value" : [ "A" ]
							}
, 							{
								"key" : 10,
								"value" : [ "A#" ]
							}
, 							{
								"key" : 11,
								"value" : [ "B" ]
							}
 ]
					}
,
					"id" : "obj-78",
					"maxclass" : "newobj",
					"numinlets" : 1,
					"numoutlets" : 4,
					"outlettype" : [ "", "", "", "" ],
					"patching_rect" : [ 233.75, 861.0, 50.5, 22.0 ],
					"saved_object_attributes" : 					{
						"embed" : 1,
						"precision" : 6
					}
,
					"text" : "coll"
				}

			}
, 			{
				"box" : 				{
					"fontname" : "Ableton Sans Medium",
					"id" : "obj-55",
					"maxclass" : "comment",
					"numinlets" : 1,
					"numoutlets" : 0,
					"patching_rect" : [ 233.75, 777.5, 64.0, 21.0 ],
					"presentation" : 1,
					"presentation_rect" : [ 61.5, 84.0, 64.0, 21.0 ],
					"text" : "Transpose"
				}

			}
, 			{
				"box" : 				{
					"activebgcolor" : [ 0.074509803921569, 0.070588235294118, 0.082352941176471, 1.0 ],
					"annotation" : "Transposes the whole melody up or down in semitones",
					"appearance" : 3,
					"id" : "obj-49",
					"maxclass" : "live.numbox",
					"numinlets" : 1,
					"numoutlets" : 2,
					"outlettype" : [ "", "float" ],
					"parameter_enable" : 1,
					"patching_rect" : [ 233.75, 799.5, 44.0, 15.0 ],
					"presentation" : 1,
					"presentation_rect" : [ 15.5, 84.0, 44.0, 15.0 ],
					"saved_attribute_attributes" : 					{
						"activebgcolor" : 						{
							"expression" : "themecolor.live_meter_bg"
						}
,
						"valueof" : 						{
							"parameter_info" : "Transposes the whole melody up or down in semitones",
							"parameter_longname" : "Transpose",
							"parameter_mmax" : 48.0,
							"parameter_mmin" : -48.0,
							"parameter_shortname" : "Transpose",
							"parameter_steps" : 97,
							"parameter_type" : 1,
							"parameter_unitstyle" : 7
						}

					}
,
					"varname" : "live.numbox"
				}

			}
, 			{
				"box" : 				{
					"id" : "obj-82",
					"maxclass" : "newobj",
					"numinlets" : 6,
					"numoutlets" : 6,
					"outlettype" : [ "bang", "bang", "bang", "bang", "bang", "" ],
					"patching_rect" : [ 13.0, 683.0, 90.0, 22.0 ],
					"text" : "select 0 1 2 3 4"
				}

			}
, 			{
				"box" : 				{
					"activebgcolor" : [ 0.074509803921569, 0.070588235294118, 0.082352941176471, 1.0 ],
					"annotation" : "Sets the MIDI notes in a certain scale relative to the key",
					"id" : "obj-71",
					"maxclass" : "live.menu",
					"numinlets" : 1,
					"numoutlets" : 3,
					"outlettype" : [ "", "", "float" ],
					"parameter_enable" : 1,
					"patching_rect" : [ 13.0, 664.0, 100.0, 15.0 ],
					"presentation" : 1,
					"presentation_rect" : [ 15.5, 67.0, 88.0, 15.0 ],
					"saved_attribute_attributes" : 					{
						"activebgcolor" : 						{
							"expression" : "themecolor.live_meter_bg"
						}
,
						"valueof" : 						{
							"parameter_enum" : [ "Major", "Minor", "PentatonicMajor", "PentatonicMinor", "Sus4" ],
							"parameter_info" : "Sets the MIDI notes in a certain scale relative to the key",
							"parameter_longname" : "Scale",
							"parameter_mmax" : 4,
							"parameter_shortname" : "Scale",
							"parameter_type" : 2
						}

					}
,
					"varname" : "live.menu"
				}

			}
, 			{
				"box" : 				{
					"id" : "obj-29",
					"maxclass" : "newobj",
					"numinlets" : 1,
					"numoutlets" : 1,
					"outlettype" : [ "" ],
					"patching_rect" : [ 130.5, 287.0, 83.0, 22.0 ],
					"text" : "loadmess 100"
				}

			}
, 			{
				"box" : 				{
					"fontname" : "Ableton Sans Medium",
					"id" : "obj-77",
					"maxclass" : "comment",
					"numinlets" : 1,
					"numoutlets" : 0,
					"patching_rect" : [ 146.5, 313.0, 33.0, 21.0 ],
					"presentation" : 1,
					"presentation_rect" : [ 168.5, 31.0, 33.0, 21.0 ],
					"text" : "BPM"
				}

			}
, 			{
				"box" : 				{
					"fontname" : "Ableton Sans Medium",
					"id" : "obj-74",
					"maxclass" : "comment",
					"numinlets" : 1,
					"numoutlets" : 0,
					"patching_rect" : [ 0.75, 359.0, 34.0, 21.0 ],
					"presentation" : 1,
					"presentation_rect" : [ 131.5, 11.0, 35.0, 21.0 ],
					"text" : "Play!"
				}

			}
, 			{
				"box" : 				{
					"id" : "obj-62",
					"maxclass" : "newobj",
					"numinlets" : 1,
					"numoutlets" : 3,
					"outlettype" : [ "", "int", "int" ],
					"patching_rect" : [ 70.0, 236.0, 48.0, 22.0 ],
					"text" : "change"
				}

			}
, 			{
				"box" : 				{
					"id" : "obj-66",
					"maxclass" : "newobj",
					"numinlets" : 2,
					"numoutlets" : 1,
					"outlettype" : [ "" ],
					"patching_rect" : [ 62.0, 287.0, 32.0, 22.0 ],
					"text" : "gate"
				}

			}
, 			{
				"box" : 				{
					"fontname" : "Ableton Sans Medium",
					"id" : "obj-75",
					"linecount" : 2,
					"maxclass" : "comment",
					"numinlets" : 1,
					"numoutlets" : 0,
					"patching_rect" : [ 4.5, 236.0, 48.0, 35.0 ],
					"presentation" : 1,
					"presentation_rect" : [ 131.5, 53.0, 84.0, 21.0 ],
					"text" : "Global control"
				}

			}
, 			{
				"box" : 				{
					"activebgcolor" : [ 0.074509803921569, 0.070588235294118, 0.082352941176471, 1.0 ],
					"id" : "obj-73",
					"maxclass" : "live.toggle",
					"numinlets" : 1,
					"numoutlets" : 1,
					"outlettype" : [ "" ],
					"parameter_enable" : 1,
					"parameter_mappable" : 0,
					"patching_rect" : [ 49.5, 236.0, 15.0, 15.0 ],
					"presentation" : 1,
					"presentation_rect" : [ 117.5, 53.0, 15.0, 15.0 ],
					"saved_attribute_attributes" : 					{
						"activebgcolor" : 						{
							"expression" : "themecolor.live_meter_bg"
						}
,
						"valueof" : 						{
							"parameter_enum" : [ "off", "on" ],
							"parameter_longname" : "Global Control",
							"parameter_mmax" : 1,
							"parameter_shortname" : "Global Control",
							"parameter_type" : 2
						}

					}
,
					"varname" : "live.toggle[2]"
				}

			}
, 			{
				"box" : 				{
					"id" : "obj-68",
					"maxclass" : "newobj",
					"numinlets" : 2,
					"numoutlets" : 1,
					"outlettype" : [ "" ],
					"patching_rect" : [ 96.5, 287.0, 32.0, 22.0 ],
					"text" : "gate"
				}

			}
, 			{
				"box" : 				{
					"id" : "obj-70",
					"maxclass" : "newobj",
					"numinlets" : 1,
					"numoutlets" : 9,
					"outlettype" : [ "int", "int", "int", "float", "list", "float", "float", "int", "int" ],
					"patching_rect" : [ 70.0, 207.0, 103.0, 22.0 ],
					"text" : "plugsync~"
				}

			}
, 			{
				"box" : 				{
					"id" : "obj-61",
					"maxclass" : "newobj",
					"numinlets" : 2,
					"numoutlets" : 2,
					"outlettype" : [ "bang", "" ],
					"patching_rect" : [ 395.25, 730.0, 34.0, 22.0 ],
					"text" : "sel 1"
				}

			}
, 			{
				"box" : 				{
					"id" : "obj-52",
					"maxclass" : "newobj",
					"numinlets" : 2,
					"numoutlets" : 1,
					"outlettype" : [ "bang" ],
					"patching_rect" : [ 395.25, 754.0, 64.0, 22.0 ],
					"text" : "delay 0.01"
				}

			}
, 			{
				"box" : 				{
					"id" : "obj-41",
					"maxclass" : "newobj",
					"numinlets" : 2,
					"numoutlets" : 2,
					"outlettype" : [ "", "" ],
					"patching_rect" : [ 395.25, 700.5, 60.0, 22.0 ],
					"text" : "zl.change"
				}

			}
, 			{
				"box" : 				{
					"fontname" : "Ableton Sans Medium",
					"id" : "obj-39",
					"linecount" : 2,
					"maxclass" : "comment",
					"numinlets" : 1,
					"numoutlets" : 0,
					"patching_rect" : [ 292.0, 207.0, 49.0, 35.0 ],
					"presentation" : 1,
					"presentation_linecount" : 2,
					"presentation_rect" : [ 41.5, 11.0, 49.0, 35.0 ],
					"text" : "Change\nmelody"
				}

			}
, 			{
				"box" : 				{
					"activebgcolor" : [ 0.074509803921569, 0.070588235294118, 0.082352941176471, 1.0 ],
					"activebgoncolor" : [ 0.133333333333333, 0.811764705882353, 0.52156862745098, 1.0 ],
					"id" : "obj-38",
					"maxclass" : "live.toggle",
					"numinlets" : 1,
					"numoutlets" : 1,
					"outlettype" : [ "" ],
					"parameter_enable" : 1,
					"patching_rect" : [ 35.5, 359.0, 15.0, 15.0 ],
					"presentation" : 1,
					"presentation_rect" : [ 117.5, 14.0, 15.0, 15.0 ],
					"saved_attribute_attributes" : 					{
						"activebgcolor" : 						{
							"expression" : "themecolor.live_meter_bg"
						}
,
						"activebgoncolor" : 						{
							"expression" : "themecolor.live_macro_assignment"
						}
,
						"valueof" : 						{
							"parameter_enum" : [ "off", "on" ],
							"parameter_longname" : "Play",
							"parameter_mmax" : 1,
							"parameter_shortname" : "Play",
							"parameter_type" : 2
						}

					}
,
					"varname" : "live.toggle[1]"
				}

			}
, 			{
				"box" : 				{
					"id" : "obj-65",
					"maxclass" : "newobj",
					"numinlets" : 2,
					"numoutlets" : 1,
					"outlettype" : [ "" ],
					"patching_rect" : [ 155.0, 1046.0, 32.0, 22.0 ],
					"text" : "gate"
				}

			}
, 			{
				"box" : 				{
					"id" : "obj-25",
					"maxclass" : "newobj",
					"numinlets" : 6,
					"numoutlets" : 1,
					"outlettype" : [ "" ],
					"patching_rect" : [ 397.0, 1050.5, 97.0, 22.0 ],
					"text" : "scale 1 14 1 127"
				}

			}
, 			{
				"box" : 				{
					"id" : "obj-53",
					"maxclass" : "message",
					"numinlets" : 2,
					"numoutlets" : 1,
					"outlettype" : [ "" ],
					"patching_rect" : [ 159.5, 553.0, 29.5, 22.0 ],
					"text" : "0"
				}

			}
, 			{
				"box" : 				{
					"id" : "obj-28",
					"maxclass" : "message",
					"numinlets" : 2,
					"numoutlets" : 1,
					"outlettype" : [ "" ],
					"patching_rect" : [ 51.25, 819.5, 98.0, 22.0 ],
					"text" : "refer PentaMinor"
				}

			}
, 			{
				"box" : 				{
					"coll_data" : 					{
						"count" : 14,
						"data" : [ 							{
								"key" : 1,
								"value" : [ 48 ]
							}
, 							{
								"key" : 2,
								"value" : [ 50 ]
							}
, 							{
								"key" : 3,
								"value" : [ 51 ]
							}
, 							{
								"key" : 4,
								"value" : [ 51 ]
							}
, 							{
								"key" : 5,
								"value" : [ 55 ]
							}
, 							{
								"key" : 6,
								"value" : [ 56 ]
							}
, 							{
								"key" : 7,
								"value" : [ 56 ]
							}
, 							{
								"key" : 8,
								"value" : [ 60 ]
							}
, 							{
								"key" : 9,
								"value" : [ 62 ]
							}
, 							{
								"key" : 10,
								"value" : [ 63 ]
							}
, 							{
								"key" : 11,
								"value" : [ 63 ]
							}
, 							{
								"key" : 12,
								"value" : [ 67 ]
							}
, 							{
								"key" : 13,
								"value" : [ 68 ]
							}
, 							{
								"key" : 14,
								"value" : [ 68 ]
							}
 ]
					}
,
					"id" : "obj-24",
					"maxclass" : "newobj",
					"numinlets" : 1,
					"numoutlets" : 4,
					"outlettype" : [ "", "", "", "" ],
					"patching_rect" : [ 13.0, 982.0, 91.0, 22.0 ],
					"saved_object_attributes" : 					{
						"embed" : 1,
						"precision" : 6
					}
,
					"text" : "coll PentaMinor"
				}

			}
, 			{
				"box" : 				{
					"id" : "obj-22",
					"maxclass" : "newobj",
					"numinlets" : 2,
					"numoutlets" : 1,
					"outlettype" : [ "int" ],
					"patching_rect" : [ 191.0, 553.0, 29.5, 22.0 ],
					"text" : "- 1"
				}

			}
, 			{
				"box" : 				{
					"id" : "obj-2",
					"maxclass" : "newobj",
					"numinlets" : 2,
					"numoutlets" : 1,
					"outlettype" : [ "" ],
					"patching_rect" : [ 273.0, 683.0, 41.0, 22.0 ],
					"text" : "pipe 1"
				}

			}
, 			{
				"box" : 				{
					"id" : "obj-72",
					"maxclass" : "newobj",
					"numinlets" : 2,
					"numoutlets" : 1,
					"outlettype" : [ "int" ],
					"patching_rect" : [ 158.0, 638.0, 29.5, 22.0 ],
					"text" : "+ 0"
				}

			}
, 			{
				"box" : 				{
					"id" : "obj-56",
					"maxclass" : "newobj",
					"numinlets" : 1,
					"numoutlets" : 1,
					"outlettype" : [ "" ],
					"patching_rect" : [ 454.25, 700.5, 118.0, 22.0 ],
					"text" : "if $i1 == 0 then bang"
				}

			}
, 			{
				"box" : 				{
					"fontname" : "Ableton Sans Medium",
					"id" : "obj-40",
					"linecount" : 2,
					"maxclass" : "comment",
					"numinlets" : 1,
					"numoutlets" : 0,
					"patching_rect" : [ 436.25, 451.0, 50.0, 35.0 ],
					"presentation" : 1,
					"presentation_linecount" : 2,
					"presentation_rect" : [ 41.5, 102.0, 49.0, 35.0 ],
					"text" : "Change\nrhythm"
				}

			}
, 			{
				"box" : 				{
					"id" : "obj-45",
					"maxclass" : "message",
					"numinlets" : 2,
					"numoutlets" : 1,
					"outlettype" : [ "" ],
					"patching_rect" : [ 454.25, 601.0, 29.5, 22.0 ],
					"text" : "0"
				}

			}
, 			{
				"box" : 				{
					"id" : "obj-44",
					"maxclass" : "newobj",
					"numinlets" : 2,
					"numoutlets" : 2,
					"outlettype" : [ "bang", "" ],
					"patching_rect" : [ 491.25, 539.0, 34.0, 22.0 ],
					"text" : "sel 0"
				}

			}
, 			{
				"box" : 				{
					"id" : "obj-46",
					"maxclass" : "newobj",
					"numinlets" : 2,
					"numoutlets" : 2,
					"outlettype" : [ "bang", "bang" ],
					"patching_rect" : [ 454.25, 572.0, 55.0, 22.0 ],
					"text" : "onebang"
				}

			}
, 			{
				"box" : 				{
					"id" : "obj-50",
					"maxclass" : "newobj",
					"numinlets" : 2,
					"numoutlets" : 2,
					"outlettype" : [ "", "" ],
					"patching_rect" : [ 503.25, 635.0, 51.0, 22.0 ],
					"text" : "zl.group"
				}

			}
, 			{
				"box" : 				{
					"bgcolor" : [ 0.074509803921569, 0.070588235294118, 0.082352941176471, 1.0 ],
					"id" : "obj-5",
					"maxclass" : "button",
					"numinlets" : 1,
					"numoutlets" : 1,
					"outlettype" : [ "bang" ],
					"parameter_enable" : 0,
					"patching_rect" : [ 491.25, 451.0, 24.0, 24.0 ],
					"presentation" : 1,
					"presentation_rect" : [ 15.5, 105.0, 24.0, 24.0 ],
					"saved_attribute_attributes" : 					{
						"bgcolor" : 						{
							"expression" : "themecolor.live_meter_bg"
						}

					}

				}

			}
, 			{
				"box" : 				{
					"id" : "obj-3",
					"maxclass" : "newobj",
					"numinlets" : 2,
					"numoutlets" : 3,
					"outlettype" : [ "bang", "bang", "int" ],
					"patching_rect" : [ 491.25, 488.0, 40.0, 22.0 ],
					"text" : "uzi 8"
				}

			}
, 			{
				"box" : 				{
					"id" : "obj-51",
					"maxclass" : "newobj",
					"numinlets" : 2,
					"numoutlets" : 1,
					"outlettype" : [ "int" ],
					"patching_rect" : [ 491.25, 514.0, 59.0, 22.0 ],
					"text" : "random 2"
				}

			}
, 			{
				"box" : 				{
					"id" : "obj-35",
					"maxclass" : "message",
					"numinlets" : 2,
					"numoutlets" : 1,
					"outlettype" : [ "" ],
					"patching_rect" : [ 38.5, 797.5, 98.0, 22.0 ],
					"text" : "refer PentaMajor"
				}

			}
, 			{
				"box" : 				{
					"coll_data" : 					{
						"count" : 14,
						"data" : [ 							{
								"key" : 1,
								"value" : [ 48 ]
							}
, 							{
								"key" : 2,
								"value" : [ 50 ]
							}
, 							{
								"key" : 3,
								"value" : [ 52 ]
							}
, 							{
								"key" : 4,
								"value" : [ 52 ]
							}
, 							{
								"key" : 5,
								"value" : [ 55 ]
							}
, 							{
								"key" : 6,
								"value" : [ 57 ]
							}
, 							{
								"key" : 7,
								"value" : [ 57 ]
							}
, 							{
								"key" : 8,
								"value" : [ 60 ]
							}
, 							{
								"key" : 9,
								"value" : [ 62 ]
							}
, 							{
								"key" : 10,
								"value" : [ 64 ]
							}
, 							{
								"key" : 11,
								"value" : [ 64 ]
							}
, 							{
								"key" : 12,
								"value" : [ 67 ]
							}
, 							{
								"key" : 13,
								"value" : [ 69 ]
							}
, 							{
								"key" : 14,
								"value" : [ 69 ]
							}
 ]
					}
,
					"id" : "obj-33",
					"maxclass" : "newobj",
					"numinlets" : 1,
					"numoutlets" : 4,
					"outlettype" : [ "", "", "", "" ],
					"patching_rect" : [ 13.0, 961.0, 91.0, 22.0 ],
					"saved_object_attributes" : 					{
						"embed" : 1,
						"precision" : 6
					}
,
					"text" : "coll PentaMajor"
				}

			}
, 			{
				"box" : 				{
					"id" : "obj-32",
					"maxclass" : "newobj",
					"numinlets" : 5,
					"numoutlets" : 4,
					"outlettype" : [ "int", "", "", "int" ],
					"patching_rect" : [ 136.0, 593.0, 65.0, 22.0 ],
					"text" : "counter 15"
				}

			}
, 			{
				"box" : 				{
					"id" : "obj-15",
					"maxclass" : "newobj",
					"numinlets" : 2,
					"numoutlets" : 1,
					"outlettype" : [ "" ],
					"patching_rect" : [ 203.0, 717.0, 32.0, 22.0 ],
					"text" : "gate"
				}

			}
, 			{
				"box" : 				{
					"id" : "obj-17",
					"maxclass" : "toggle",
					"numinlets" : 1,
					"numoutlets" : 1,
					"outlettype" : [ "int" ],
					"parameter_enable" : 0,
					"patching_rect" : [ 375.25, 279.0, 24.0, 24.0 ]
				}

			}
, 			{
				"box" : 				{
					"id" : "obj-13",
					"maxclass" : "gswitch2",
					"numinlets" : 2,
					"numoutlets" : 2,
					"outlettype" : [ "", "" ],
					"parameter_enable" : 0,
					"patching_rect" : [ 375.25, 308.0, 39.0, 32.0 ]
				}

			}
, 			{
				"box" : 				{
					"id" : "obj-11",
					"maxclass" : "newobj",
					"numinlets" : 2,
					"numoutlets" : 1,
					"outlettype" : [ "int" ],
					"patching_rect" : [ 461.0, 359.0, 56.0, 22.0 ],
					"text" : "urn-jb 14"
				}

			}
, 			{
				"box" : 				{
					"id" : "obj-4",
					"maxclass" : "message",
					"numinlets" : 2,
					"numoutlets" : 1,
					"outlettype" : [ "" ],
					"patching_rect" : [ 118.25, 1046.0, 29.5, 22.0 ],
					"text" : "60"
				}

			}
, 			{
				"box" : 				{
					"id" : "obj-1",
					"maxclass" : "newobj",
					"numinlets" : 2,
					"numoutlets" : 2,
					"outlettype" : [ "", "" ],
					"patching_rect" : [ 203.0, 683.0, 56.0, 22.0 ],
					"text" : "zl.lookup"
				}

			}
, 			{
				"box" : 				{
					"id" : "obj-8",
					"linecount" : 2,
					"maxclass" : "message",
					"numinlets" : 2,
					"numoutlets" : 1,
					"outlettype" : [ "" ],
					"patching_rect" : [ 395.25, 635.0, 85.0, 35.0 ],
					"text" : "1 0 1 0 1 1 1 0 1 1 0 1 1 0 1 1"
				}

			}
, 			{
				"box" : 				{
					"format" : 6,
					"id" : "obj-47",
					"maxclass" : "flonum",
					"maximum" : 999.0,
					"minimum" : 20.0,
					"numdecimalplaces" : 2,
					"numinlets" : 1,
					"numoutlets" : 2,
					"outlettype" : [ "", "bang" ],
					"parameter_enable" : 0,
					"patching_rect" : [ 96.5, 313.0, 50.0, 22.0 ],
					"presentation" : 1,
					"presentation_rect" : [ 117.5, 31.0, 49.0, 22.0 ],
					"varname" : "number"
				}

			}
, 			{
				"box" : 				{
					"id" : "obj-16",
					"maxclass" : "newobj",
					"numinlets" : 2,
					"numoutlets" : 1,
					"outlettype" : [ "int" ],
					"patching_rect" : [ 165.5, 1013.5, 29.5, 22.0 ],
					"text" : "+"
				}

			}
, 			{
				"box" : 				{
					"id" : "obj-12",
					"maxclass" : "button",
					"numinlets" : 1,
					"numoutlets" : 1,
					"outlettype" : [ "bang" ],
					"parameter_enable" : 0,
					"patching_rect" : [ 339.0, 207.0, 24.0, 24.0 ],
					"presentation" : 1,
					"presentation_rect" : [ 15.5, 14.0, 24.0, 24.0 ]
				}

			}
, 			{
				"box" : 				{
					"id" : "obj-7",
					"maxclass" : "newobj",
					"numinlets" : 2,
					"numoutlets" : 2,
					"outlettype" : [ "", "" ],
					"patching_rect" : [ 273.0, 635.0, 56.0, 22.0 ],
					"text" : "zl.lookup"
				}

			}
, 			{
				"box" : 				{
					"id" : "obj-43",
					"maxclass" : "newobj",
					"numinlets" : 4,
					"numoutlets" : 1,
					"outlettype" : [ "int" ],
					"patching_rect" : [ 101.5, 502.0, 50.5, 22.0 ],
					"text" : "tempo"
				}

			}
, 			{
				"box" : 				{
					"annotation" : "Amount of beats the generated melody consists of. When lower than the already generated melody, this just shortens/cut off the pattern.",
					"id" : "obj-42",
					"maxclass" : "number",
					"maximum" : 32,
					"minimum" : 4,
					"numinlets" : 1,
					"numoutlets" : 2,
					"outlettype" : [ "", "bang" ],
					"parameter_enable" : 1,
					"patching_rect" : [ 586.75, 207.0, 50.0, 22.0 ],
					"presentation" : 1,
					"presentation_rect" : [ 15.5, 45.0, 50.0, 22.0 ],
					"saved_attribute_attributes" : 					{
						"valueof" : 						{
							"parameter_initial" : [ 16.0 ],
							"parameter_initial_enable" : 1,
							"parameter_longname" : "Beat Amount",
							"parameter_mmax" : 32.0,
							"parameter_mmin" : 4.0,
							"parameter_shortname" : "Beat Amount",
							"parameter_type" : 1
						}

					}
,
					"varname" : "number[1]"
				}

			}
, 			{
				"box" : 				{
					"id" : "obj-31",
					"maxclass" : "newobj",
					"numinlets" : 2,
					"numoutlets" : 2,
					"outlettype" : [ "", "" ],
					"patching_rect" : [ 395.25, 416.0, 51.0, 22.0 ],
					"text" : "zl.group"
				}

			}
, 			{
				"box" : 				{
					"id" : "obj-30",
					"maxclass" : "message",
					"numinlets" : 2,
					"numoutlets" : 1,
					"outlettype" : [ "" ],
					"patching_rect" : [ 25.75, 776.5, 67.0, 22.0 ],
					"text" : "refer Minor"
				}

			}
, 			{
				"box" : 				{
					"coll_data" : 					{
						"count" : 14,
						"data" : [ 							{
								"key" : 1,
								"value" : [ 48 ]
							}
, 							{
								"key" : 2,
								"value" : [ 50 ]
							}
, 							{
								"key" : 3,
								"value" : [ 51 ]
							}
, 							{
								"key" : 4,
								"value" : [ 53 ]
							}
, 							{
								"key" : 5,
								"value" : [ 55 ]
							}
, 							{
								"key" : 6,
								"value" : [ 56 ]
							}
, 							{
								"key" : 7,
								"value" : [ 58 ]
							}
, 							{
								"key" : 8,
								"value" : [ 60 ]
							}
, 							{
								"key" : 9,
								"value" : [ 62 ]
							}
, 							{
								"key" : 10,
								"value" : [ 63 ]
							}
, 							{
								"key" : 11,
								"value" : [ 65 ]
							}
, 							{
								"key" : 12,
								"value" : [ 66 ]
							}
, 							{
								"key" : 13,
								"value" : [ 68 ]
							}
, 							{
								"key" : 14,
								"value" : [ 70 ]
							}
 ]
					}
,
					"id" : "obj-27",
					"maxclass" : "newobj",
					"numinlets" : 1,
					"numoutlets" : 4,
					"outlettype" : [ "", "", "", "" ],
					"patching_rect" : [ 13.0, 939.0, 60.0, 22.0 ],
					"saved_object_attributes" : 					{
						"embed" : 1,
						"precision" : 6
					}
,
					"text" : "coll Minor"
				}

			}
, 			{
				"box" : 				{
					"id" : "obj-26",
					"maxclass" : "newobj",
					"numinlets" : 2,
					"numoutlets" : 1,
					"outlettype" : [ "int" ],
					"patching_rect" : [ 395.25, 391.0, 29.5, 22.0 ],
					"text" : "+ 1"
				}

			}
, 			{
				"box" : 				{
					"id" : "obj-10",
					"maxclass" : "newobj",
					"numinlets" : 2,
					"numoutlets" : 3,
					"outlettype" : [ "bang", "bang", "int" ],
					"patching_rect" : [ 395.25, 248.0, 40.0, 22.0 ],
					"text" : "uzi 8"
				}

			}
, 			{
				"box" : 				{
					"id" : "obj-6",
					"maxclass" : "newobj",
					"numinlets" : 2,
					"numoutlets" : 1,
					"outlettype" : [ "int" ],
					"patching_rect" : [ 395.25, 359.0, 66.0, 22.0 ],
					"text" : "random 14"
				}

			}
, 			{
				"box" : 				{
					"id" : "obj-9",
					"maxclass" : "message",
					"numinlets" : 2,
					"numoutlets" : 1,
					"outlettype" : [ "" ],
					"patching_rect" : [ 13.0, 754.5, 67.0, 22.0 ],
					"text" : "refer Major"
				}

			}
, 			{
				"box" : 				{
					"id" : "obj-84",
					"maxclass" : "newobj",
					"numinlets" : 3,
					"numoutlets" : 2,
					"outlettype" : [ "float", "float" ],
					"patching_rect" : [ 155.0, 1223.5, 108.0, 22.0 ],
					"text" : "makenote 100 100"
				}

			}
, 			{
				"box" : 				{
					"id" : "obj-83",
					"maxclass" : "newobj",
					"numinlets" : 3,
					"numoutlets" : 0,
					"patching_rect" : [ 155.0, 1257.5, 49.0, 22.0 ],
					"text" : "noteout"
				}

			}
, 			{
				"box" : 				{
					"coll_data" : 					{
						"count" : 14,
						"data" : [ 							{
								"key" : 1,
								"value" : [ 48 ]
							}
, 							{
								"key" : 2,
								"value" : [ 50 ]
							}
, 							{
								"key" : 3,
								"value" : [ 52 ]
							}
, 							{
								"key" : 4,
								"value" : [ 53 ]
							}
, 							{
								"key" : 5,
								"value" : [ 55 ]
							}
, 							{
								"key" : 6,
								"value" : [ 57 ]
							}
, 							{
								"key" : 7,
								"value" : [ 59 ]
							}
, 							{
								"key" : 8,
								"value" : [ 60 ]
							}
, 							{
								"key" : 9,
								"value" : [ 62 ]
							}
, 							{
								"key" : 10,
								"value" : [ 64 ]
							}
, 							{
								"key" : 11,
								"value" : [ 65 ]
							}
, 							{
								"key" : 12,
								"value" : [ 67 ]
							}
, 							{
								"key" : 13,
								"value" : [ 69 ]
							}
, 							{
								"key" : 14,
								"value" : [ 71 ]
							}
 ]
					}
,
					"id" : "obj-59",
					"maxclass" : "newobj",
					"numinlets" : 1,
					"numoutlets" : 4,
					"outlettype" : [ "", "", "", "" ],
					"patching_rect" : [ 165.5, 961.0, 50.5, 22.0 ],
					"saved_object_attributes" : 					{
						"embed" : 1,
						"precision" : 6
					}
,
					"text" : "coll"
				}

			}
, 			{
				"box" : 				{
					"coll_data" : 					{
						"count" : 14,
						"data" : [ 							{
								"key" : 1,
								"value" : [ 48 ]
							}
, 							{
								"key" : 2,
								"value" : [ 50 ]
							}
, 							{
								"key" : 3,
								"value" : [ 52 ]
							}
, 							{
								"key" : 4,
								"value" : [ 53 ]
							}
, 							{
								"key" : 5,
								"value" : [ 55 ]
							}
, 							{
								"key" : 6,
								"value" : [ 57 ]
							}
, 							{
								"key" : 7,
								"value" : [ 59 ]
							}
, 							{
								"key" : 8,
								"value" : [ 60 ]
							}
, 							{
								"key" : 9,
								"value" : [ 62 ]
							}
, 							{
								"key" : 10,
								"value" : [ 64 ]
							}
, 							{
								"key" : 11,
								"value" : [ 65 ]
							}
, 							{
								"key" : 12,
								"value" : [ 67 ]
							}
, 							{
								"key" : 13,
								"value" : [ 69 ]
							}
, 							{
								"key" : 14,
								"value" : [ 71 ]
							}
 ]
					}
,
					"id" : "obj-58",
					"maxclass" : "newobj",
					"numinlets" : 1,
					"numoutlets" : 4,
					"outlettype" : [ "", "", "", "" ],
					"patching_rect" : [ 13.0, 917.0, 60.0, 22.0 ],
					"saved_object_attributes" : 					{
						"embed" : 1,
						"precision" : 6
					}
,
					"text" : "coll Major"
				}

			}
, 			{
				"box" : 				{
					"annotation" : "Displays the generated pattern. By clicking on the beats you can manualy adjust the pattern. Due to the type of object I use you have to click low on the block to delete it and high in the black area to add a beat.",
					"bgcolor" : [ 0.074509803921569, 0.070588235294118, 0.082352941176471, 1.0 ],
					"contdata" : 1,
					"id" : "obj-127",
					"maxclass" : "multislider",
					"numinlets" : 1,
					"numoutlets" : 2,
					"outlettype" : [ "", "" ],
					"parameter_enable" : 1,
					"patching_rect" : [ 380.25, 673.5, 220.0, 19.0 ],
					"presentation" : 1,
					"presentation_rect" : [ 15.5, 136.0, 220.0, 19.0 ],
					"saved_attribute_attributes" : 					{
						"bgcolor" : 						{
							"expression" : "themecolor.live_meter_bg"
						}
,
						"slidercolor" : 						{
							"expression" : "themecolor.theme_color"
						}
,
						"valueof" : 						{
							"parameter_initial" : [ 1, 0, 1, 0, 1, 1, 1, 0, 1, 1, 0, 1, 1, 0, 1, 1 ],
							"parameter_initial_enable" : 1,
							"parameter_invisible" : 1,
							"parameter_longname" : "multislider",
							"parameter_shortname" : "multislider",
							"parameter_type" : 3
						}

					}
,
					"setminmax" : [ 0.0, 1.0 ],
					"setstyle" : 1,
					"settype" : 0,
					"size" : 16,
					"spacing" : 1,
					"thickness" : 1,
					"varname" : "multislider"
				}

			}
 ],
		"lines" : [ 			{
				"patchline" : 				{
					"destination" : [ "obj-15", 0 ],
					"source" : [ "obj-1", 0 ]
				}

			}
, 			{
				"patchline" : 				{
					"destination" : [ "obj-13", 1 ],
					"source" : [ "obj-10", 0 ]
				}

			}
, 			{
				"patchline" : 				{
					"destination" : [ "obj-36", 0 ],
					"source" : [ "obj-100", 0 ]
				}

			}
, 			{
				"patchline" : 				{
					"destination" : [ "obj-164", 1 ],
					"order" : 1,
					"source" : [ "obj-101", 0 ]
				}

			}
, 			{
				"patchline" : 				{
					"destination" : [ "obj-183", 0 ],
					"order" : 0,
					"source" : [ "obj-101", 0 ]
				}

			}
, 			{
				"patchline" : 				{
					"destination" : [ "obj-25", 4 ],
					"order" : 2,
					"source" : [ "obj-101", 0 ]
				}

			}
, 			{
				"patchline" : 				{
					"destination" : [ "obj-97", 0 ],
					"order" : 3,
					"source" : [ "obj-101", 0 ]
				}

			}
, 			{
				"patchline" : 				{
					"destination" : [ "obj-105", 0 ],
					"source" : [ "obj-102", 0 ]
				}

			}
, 			{
				"patchline" : 				{
					"destination" : [ "obj-109", 1 ],
					"order" : 0,
					"source" : [ "obj-105", 0 ]
				}

			}
, 			{
				"patchline" : 				{
					"destination" : [ "obj-112", 0 ],
					"order" : 1,
					"source" : [ "obj-105", 0 ]
				}

			}
, 			{
				"patchline" : 				{
					"destination" : [ "obj-100", 0 ],
					"order" : 0,
					"source" : [ "obj-109", 0 ]
				}

			}
, 			{
				"patchline" : 				{
					"destination" : [ "obj-93", 0 ],
					"order" : 1,
					"source" : [ "obj-109", 0 ]
				}

			}
, 			{
				"patchline" : 				{
					"destination" : [ "obj-26", 0 ],
					"source" : [ "obj-11", 0 ]
				}

			}
, 			{
				"patchline" : 				{
					"destination" : [ "obj-109", 0 ],
					"source" : [ "obj-112", 0 ]
				}

			}
, 			{
				"patchline" : 				{
					"destination" : [ "obj-78", 0 ],
					"source" : [ "obj-113", 0 ]
				}

			}
, 			{
				"patchline" : 				{
					"destination" : [ "obj-10", 0 ],
					"source" : [ "obj-12", 0 ]
				}

			}
, 			{
				"patchline" : 				{
					"destination" : [ "obj-1", 1 ],
					"source" : [ "obj-127", 0 ]
				}

			}
, 			{
				"patchline" : 				{
					"destination" : [ "obj-11", 0 ],
					"source" : [ "obj-13", 1 ]
				}

			}
, 			{
				"patchline" : 				{
					"destination" : [ "obj-6", 0 ],
					"source" : [ "obj-13", 0 ]
				}

			}
, 			{
				"patchline" : 				{
					"destination" : [ "obj-59", 0 ],
					"source" : [ "obj-15", 0 ]
				}

			}
, 			{
				"patchline" : 				{
					"destination" : [ "obj-65", 1 ],
					"source" : [ "obj-16", 0 ]
				}

			}
, 			{
				"patchline" : 				{
					"destination" : [ "obj-185", 0 ],
					"source" : [ "obj-164", 0 ]
				}

			}
, 			{
				"patchline" : 				{
					"destination" : [ "obj-186", 0 ],
					"source" : [ "obj-169", 0 ]
				}

			}
, 			{
				"patchline" : 				{
					"destination" : [ "obj-13", 0 ],
					"source" : [ "obj-17", 0 ]
				}

			}
, 			{
				"patchline" : 				{
					"destination" : [ "obj-180", 0 ],
					"source" : [ "obj-173", 0 ]
				}

			}
, 			{
				"patchline" : 				{
					"destination" : [ "obj-164", 0 ],
					"source" : [ "obj-176", 0 ]
				}

			}
, 			{
				"patchline" : 				{
					"destination" : [ "obj-169", 0 ],
					"source" : [ "obj-180", 0 ]
				}

			}
, 			{
				"patchline" : 				{
					"destination" : [ "obj-185", 1 ],
					"source" : [ "obj-183", 0 ]
				}

			}
, 			{
				"patchline" : 				{
					"destination" : [ "obj-169", 2 ],
					"source" : [ "obj-185", 0 ]
				}

			}
, 			{
				"patchline" : 				{
					"destination" : [ "obj-84", 1 ],
					"source" : [ "obj-186", 0 ]
				}

			}
, 			{
				"patchline" : 				{
					"destination" : [ "obj-186", 1 ],
					"source" : [ "obj-187", 0 ]
				}

			}
, 			{
				"patchline" : 				{
					"destination" : [ "obj-15", 1 ],
					"source" : [ "obj-2", 0 ]
				}

			}
, 			{
				"patchline" : 				{
					"destination" : [ "obj-91", 0 ],
					"order" : 0,
					"source" : [ "obj-21", 0 ]
				}

			}
, 			{
				"patchline" : 				{
					"destination" : [ "obj-92", 0 ],
					"order" : 1,
					"source" : [ "obj-21", 0 ]
				}

			}
, 			{
				"patchline" : 				{
					"destination" : [ "obj-32", 4 ],
					"source" : [ "obj-22", 0 ]
				}

			}
, 			{
				"patchline" : 				{
					"destination" : [ "obj-169", 1 ],
					"order" : 1,
					"source" : [ "obj-25", 0 ]
				}

			}
, 			{
				"patchline" : 				{
					"destination" : [ "obj-176", 0 ],
					"order" : 0,
					"source" : [ "obj-25", 0 ]
				}

			}
, 			{
				"patchline" : 				{
					"destination" : [ "obj-31", 0 ],
					"source" : [ "obj-26", 0 ]
				}

			}
, 			{
				"patchline" : 				{
					"destination" : [ "obj-59", 0 ],
					"source" : [ "obj-28", 0 ]
				}

			}
, 			{
				"patchline" : 				{
					"destination" : [ "obj-47", 0 ],
					"source" : [ "obj-29", 0 ]
				}

			}
, 			{
				"patchline" : 				{
					"destination" : [ "obj-51", 0 ],
					"source" : [ "obj-3", 0 ]
				}

			}
, 			{
				"patchline" : 				{
					"destination" : [ "obj-59", 0 ],
					"source" : [ "obj-30", 0 ]
				}

			}
, 			{
				"patchline" : 				{
					"destination" : [ "obj-7", 1 ],
					"source" : [ "obj-31", 0 ]
				}

			}
, 			{
				"patchline" : 				{
					"destination" : [ "obj-7", 0 ],
					"order" : 0,
					"source" : [ "obj-32", 0 ]
				}

			}
, 			{
				"patchline" : 				{
					"destination" : [ "obj-72", 0 ],
					"order" : 1,
					"source" : [ "obj-32", 0 ]
				}

			}
, 			{
				"patchline" : 				{
					"destination" : [ "obj-59", 0 ],
					"source" : [ "obj-35", 0 ]
				}

			}
, 			{
				"patchline" : 				{
					"destination" : [ "obj-59", 0 ],
					"source" : [ "obj-37", 0 ]
				}

			}
, 			{
				"patchline" : 				{
					"destination" : [ "obj-43", 0 ],
					"order" : 2,
					"source" : [ "obj-38", 0 ]
				}

			}
, 			{
				"patchline" : 				{
					"destination" : [ "obj-53", 0 ],
					"order" : 0,
					"source" : [ "obj-38", 0 ]
				}

			}
, 			{
				"patchline" : 				{
					"destination" : [ "obj-65", 0 ],
					"order" : 1,
					"source" : [ "obj-38", 0 ]
				}

			}
, 			{
				"patchline" : 				{
					"destination" : [ "obj-84", 0 ],
					"source" : [ "obj-4", 0 ]
				}

			}
, 			{
				"patchline" : 				{
					"destination" : [ "obj-61", 0 ],
					"source" : [ "obj-41", 1 ]
				}

			}
, 			{
				"patchline" : 				{
					"destination" : [ "obj-18", 0 ],
					"source" : [ "obj-42", 0 ]
				}

			}
, 			{
				"patchline" : 				{
					"destination" : [ "obj-86", 0 ],
					"source" : [ "obj-43", 0 ]
				}

			}
, 			{
				"patchline" : 				{
					"destination" : [ "obj-46", 1 ],
					"order" : 1,
					"source" : [ "obj-44", 1 ]
				}

			}
, 			{
				"patchline" : 				{
					"destination" : [ "obj-46", 0 ],
					"source" : [ "obj-44", 0 ]
				}

			}
, 			{
				"patchline" : 				{
					"destination" : [ "obj-50", 0 ],
					"order" : 0,
					"source" : [ "obj-44", 1 ]
				}

			}
, 			{
				"patchline" : 				{
					"destination" : [ "obj-50", 0 ],
					"source" : [ "obj-45", 0 ]
				}

			}
, 			{
				"patchline" : 				{
					"destination" : [ "obj-45", 0 ],
					"source" : [ "obj-46", 0 ]
				}

			}
, 			{
				"patchline" : 				{
					"destination" : [ "obj-109", 0 ],
					"source" : [ "obj-47", 0 ]
				}

			}
, 			{
				"patchline" : 				{
					"destination" : [ "obj-22", 0 ],
					"source" : [ "obj-48", 0 ]
				}

			}
, 			{
				"patchline" : 				{
					"destination" : [ "obj-113", 0 ],
					"order" : 0,
					"source" : [ "obj-49", 0 ]
				}

			}
, 			{
				"patchline" : 				{
					"destination" : [ "obj-16", 1 ],
					"order" : 1,
					"source" : [ "obj-49", 0 ]
				}

			}
, 			{
				"patchline" : 				{
					"destination" : [ "obj-3", 0 ],
					"order" : 0,
					"source" : [ "obj-5", 0 ]
				}

			}
, 			{
				"patchline" : 				{
					"destination" : [ "obj-8", 0 ],
					"order" : 1,
					"source" : [ "obj-5", 0 ]
				}

			}
, 			{
				"patchline" : 				{
					"destination" : [ "obj-8", 1 ],
					"source" : [ "obj-50", 0 ]
				}

			}
, 			{
				"patchline" : 				{
					"destination" : [ "obj-44", 0 ],
					"source" : [ "obj-51", 0 ]
				}

			}
, 			{
				"patchline" : 				{
					"destination" : [ "obj-5", 0 ],
					"midpoints" : [ 404.75, 787.0, 609.75, 787.0, 609.75, 660.0, 609.75, 660.0, 609.75, 438.0, 500.75, 438.0 ],
					"source" : [ "obj-52", 0 ]
				}

			}
, 			{
				"patchline" : 				{
					"destination" : [ "obj-32", 2 ],
					"source" : [ "obj-53", 0 ]
				}

			}
, 			{
				"patchline" : 				{
					"destination" : [ "obj-10", 1 ],
					"source" : [ "obj-54", 0 ]
				}

			}
, 			{
				"patchline" : 				{
					"destination" : [ "obj-5", 0 ],
					"midpoints" : [ 463.75, 762.0, 463.75, 762.0, 463.75, 775.0, 481.75, 775.0, 481.75, 775.0, 620.75, 775.0, 620.75, 438.0, 500.75, 438.0 ],
					"source" : [ "obj-56", 0 ]
				}

			}
, 			{
				"patchline" : 				{
					"destination" : [ "obj-31", 1 ],
					"source" : [ "obj-57", 0 ]
				}

			}
, 			{
				"patchline" : 				{
					"destination" : [ "obj-16", 0 ],
					"source" : [ "obj-59", 0 ]
				}

			}
, 			{
				"patchline" : 				{
					"destination" : [ "obj-25", 0 ],
					"source" : [ "obj-59", 1 ]
				}

			}
, 			{
				"patchline" : 				{
					"destination" : [ "obj-26", 0 ],
					"source" : [ "obj-6", 0 ]
				}

			}
, 			{
				"patchline" : 				{
					"destination" : [ "obj-50", 1 ],
					"source" : [ "obj-60", 0 ]
				}

			}
, 			{
				"patchline" : 				{
					"destination" : [ "obj-52", 0 ],
					"source" : [ "obj-61", 0 ]
				}

			}
, 			{
				"patchline" : 				{
					"destination" : [ "obj-66", 1 ],
					"source" : [ "obj-62", 0 ]
				}

			}
, 			{
				"patchline" : 				{
					"destination" : [ "obj-3", 1 ],
					"source" : [ "obj-63", 0 ]
				}

			}
, 			{
				"patchline" : 				{
					"destination" : [ "obj-84", 0 ],
					"source" : [ "obj-65", 0 ]
				}

			}
, 			{
				"patchline" : 				{
					"destination" : [ "obj-38", 0 ],
					"source" : [ "obj-66", 0 ]
				}

			}
, 			{
				"patchline" : 				{
					"destination" : [ "obj-47", 0 ],
					"source" : [ "obj-67", 0 ]
				}

			}
, 			{
				"patchline" : 				{
					"destination" : [ "obj-47", 0 ],
					"source" : [ "obj-68", 0 ]
				}

			}
, 			{
				"patchline" : 				{
					"destination" : [ "obj-2", 0 ],
					"source" : [ "obj-7", 0 ]
				}

			}
, 			{
				"patchline" : 				{
					"destination" : [ "obj-62", 0 ],
					"source" : [ "obj-70", 0 ]
				}

			}
, 			{
				"patchline" : 				{
					"destination" : [ "obj-68", 1 ],
					"source" : [ "obj-70", 5 ]
				}

			}
, 			{
				"patchline" : 				{
					"destination" : [ "obj-82", 0 ],
					"source" : [ "obj-71", 0 ]
				}

			}
, 			{
				"patchline" : 				{
					"destination" : [ "obj-1", 0 ],
					"source" : [ "obj-72", 0 ]
				}

			}
, 			{
				"patchline" : 				{
					"destination" : [ "obj-66", 0 ],
					"order" : 1,
					"source" : [ "obj-73", 0 ]
				}

			}
, 			{
				"patchline" : 				{
					"destination" : [ "obj-67", 0 ],
					"order" : 2,
					"source" : [ "obj-73", 0 ]
				}

			}
, 			{
				"patchline" : 				{
					"destination" : [ "obj-68", 0 ],
					"order" : 0,
					"source" : [ "obj-73", 0 ]
				}

			}
, 			{
				"patchline" : 				{
					"destination" : [ "obj-87", 1 ],
					"order" : 0,
					"source" : [ "obj-78", 0 ]
				}

			}
, 			{
				"patchline" : 				{
					"destination" : [ "obj-87", 0 ],
					"order" : 1,
					"source" : [ "obj-78", 0 ]
				}

			}
, 			{
				"patchline" : 				{
					"destination" : [ "obj-101", 0 ],
					"source" : [ "obj-79", 0 ]
				}

			}
, 			{
				"patchline" : 				{
					"destination" : [ "obj-127", 0 ],
					"order" : 2,
					"source" : [ "obj-8", 0 ]
				}

			}
, 			{
				"patchline" : 				{
					"destination" : [ "obj-41", 0 ],
					"order" : 1,
					"source" : [ "obj-8", 0 ]
				}

			}
, 			{
				"patchline" : 				{
					"destination" : [ "obj-56", 0 ],
					"order" : 0,
					"source" : [ "obj-8", 0 ]
				}

			}
, 			{
				"patchline" : 				{
					"destination" : [ "obj-28", 0 ],
					"source" : [ "obj-82", 3 ]
				}

			}
, 			{
				"patchline" : 				{
					"destination" : [ "obj-30", 0 ],
					"source" : [ "obj-82", 1 ]
				}

			}
, 			{
				"patchline" : 				{
					"destination" : [ "obj-35", 0 ],
					"source" : [ "obj-82", 2 ]
				}

			}
, 			{
				"patchline" : 				{
					"destination" : [ "obj-37", 0 ],
					"source" : [ "obj-82", 4 ]
				}

			}
, 			{
				"patchline" : 				{
					"destination" : [ "obj-9", 0 ],
					"source" : [ "obj-82", 0 ]
				}

			}
, 			{
				"patchline" : 				{
					"destination" : [ "obj-106", 0 ],
					"order" : 0,
					"source" : [ "obj-84", 1 ]
				}

			}
, 			{
				"patchline" : 				{
					"destination" : [ "obj-83", 1 ],
					"order" : 1,
					"source" : [ "obj-84", 1 ]
				}

			}
, 			{
				"patchline" : 				{
					"destination" : [ "obj-83", 0 ],
					"source" : [ "obj-84", 0 ]
				}

			}
, 			{
				"patchline" : 				{
					"destination" : [ "obj-88", 0 ],
					"source" : [ "obj-85", 0 ]
				}

			}
, 			{
				"patchline" : 				{
					"destination" : [ "obj-32", 0 ],
					"source" : [ "obj-86", 0 ]
				}

			}
, 			{
				"patchline" : 				{
					"destination" : [ "obj-96", 0 ],
					"source" : [ "obj-87", 0 ]
				}

			}
, 			{
				"patchline" : 				{
					"destination" : [ "obj-84", 2 ],
					"source" : [ "obj-88", 0 ]
				}

			}
, 			{
				"patchline" : 				{
					"destination" : [ "obj-59", 0 ],
					"source" : [ "obj-9", 0 ]
				}

			}
, 			{
				"patchline" : 				{
					"destination" : [ "obj-88", 1 ],
					"source" : [ "obj-91", 0 ]
				}

			}
, 			{
				"patchline" : 				{
					"destination" : [ "obj-88", 0 ],
					"source" : [ "obj-92", 0 ]
				}

			}
, 			{
				"patchline" : 				{
					"destination" : [ "obj-43", 1 ],
					"source" : [ "obj-93", 0 ]
				}

			}
, 			{
				"patchline" : 				{
					"destination" : [ "obj-98", 1 ],
					"order" : 0,
					"source" : [ "obj-96", 1 ]
				}

			}
, 			{
				"patchline" : 				{
					"destination" : [ "obj-98", 0 ],
					"order" : 1,
					"source" : [ "obj-96", 1 ]
				}

			}
, 			{
				"patchline" : 				{
					"destination" : [ "obj-25", 3 ],
					"source" : [ "obj-97", 0 ]
				}

			}
 ],
		"parameters" : 		{
			"obj-102" : [ "Note Division", "Note Division", 0 ],
			"obj-127" : [ "multislider", "multislider", 0 ],
			"obj-173" : [ "Pitch/Random", "Pitch/Random", 0 ],
			"obj-187" : [ "Gain", "Gain", 0 ],
			"obj-21" : [ "Note Duration", "Note Duration", 0 ],
			"obj-38" : [ "Play", "Play", 0 ],
			"obj-42" : [ "Beat Amount", "Beat Amount", 0 ],
			"obj-49" : [ "Transpose", "Transpose", 0 ],
			"obj-71" : [ "Scale", "Scale", 0 ],
			"obj-73" : [ "Global Control", "Global Control", 0 ],
			"obj-79" : [ "Amount", "Amount", 0 ],
			"parameterbanks" : 			{
				"0" : 				{
					"index" : 0,
					"name" : "",
					"parameters" : [ "-", "-", "-", "-", "-", "-", "-", "-" ]
				}

			}
,
			"inherited_shortname" : 1
		}
,
		"dependency_cache" : [ 			{
				"name" : "urn-jb.maxpat",
				"bootpath" : "~/Library/Application Support/Cycling '74/Max 8/Examples/max-tricks/random_with_no_repeat",
				"patcherrelativepath" : "../Library/Application Support/Cycling '74/Max 8/Examples/max-tricks/random_with_no_repeat",
				"type" : "JSON",
				"implicit" : 1
			}
 ],
		"autosave" : 0
	}

}
